<?xml version="1.0" encoding="UTF-8" standalone="no" ?>
<!DOCTYPE svg PUBLIC "-//W3C//DTD SVG 1.1//EN" "http://www.w3.org/Graphics/SVG/1.1/DTD/svg11.dtd">
<svg xmlns="http://www.w3.org/2000/svg" xmlns:xlink="http://www.w3.org/1999/xlink" version="1.1" width="500" height="500" viewBox="0 0 500 500" xml:space="preserve">
<desc>Created with Fabric.js 4.5.0</desc>
<defs>
</defs>
<g transform="matrix(1 0 0 1 250.06 270)"  >
<polygon style="stroke: rgb(255,201,60); stroke-width: 1; stroke-dasharray: none; stroke-linecap: butt; stroke-dashoffset: 0; stroke-linejoin: miter; stroke-miterlimit: 4; fill: rgb(255,201,60); fill-rule: nonzero; opacity: 1;"  points="153.94,64 153.94,135 -93.06,135 -93.06,64 -153.94,64 -153.94,-135 153.81,-135 153.81,64 153.94,64 " />
</g>
<g transform="matrix(1 0 0 1 274.24 174.34)"  >
<path style="stroke: rgb(49,50,111); stroke-width: 1; stroke-dasharray: none; stroke-linecap: butt; stroke-dashoffset: 0; stroke-linejoin: miter; stroke-miterlimit: 4; fill: rgb(49,50,111); fill-rule: nonzero; opacity: 1;"  transform=" translate(-274.24, -154.34)" d="M 424 152.7 L 423.83 114.36999999999999 C 423.82794604426846 112.71977070057804 424.482808457881 111.13658684349286 425.65 109.96999999999998 L 468.46999999999997 67.13999999999999 C 470.24470570110964 65.37347913567203 470.7780357109481 62.71063934018956 469.8205500767303 60.39689831105002 C 468.8630644425125 58.08315728191049 466.60402860128676 56.57587040017334 464.09999999999997 56.579999999999984 L 139.15 56.579999999999984 C 137.50670195360192 56.583249042492696 135.93168640547546 57.23770755792424 134.77 58.399999999999984 L 80 113.19 C 78.84103492673626 114.34900755655319 78.18995751615995 115.92094583512693 78.19 117.56 L 78.19 245.9 C 78.18587040017336 248.40402860128683 79.6931572819105 250.66306444251256 82.00689831105004 251.62055007673035 C 84.32063934018957 252.57803571094811 86.98347913567204 252.04470570110968 88.75 250.27 L 132.21 206.81 C 133.36896507326375 205.6509924434468 134.02004248384006 204.07905416487307 134.02 202.44 L 134.02 161.27 C 134.01982451736117 159.61524875291573 134.68326969621148 158.02954696779892 135.86178319007917 156.86794993556572 C 137.04029668394682 155.70635290333254 138.6354242262498 155.06590167142744 140.29000000000002 155.09 L 417.72 158.91 C 419.38151043706137 158.93690945936015 420.98385112991116 158.2935680426175 422.1654373223863 157.12515239687374 C 423.34702351486146 155.95673675112997 424.00828453796055 154.36170768124165 424 152.7 Z" stroke-linecap="round" />
</g>
<g transform="matrix(1 0 0 1 287 240)"  >
<path style="stroke: rgb(74,165,78); stroke-width: 1; stroke-dasharray: none; stroke-linecap: butt; stroke-dashoffset: 0; stroke-linejoin: miter; stroke-miterlimit: 4; fill: rgb(74,165,78); fill-rule: nonzero; opacity: 1;"  transform=" translate(-287, -220)" d="M 372 247 L 202 247 C 191.50658975321494 247 183 238.49341024678506 183 228 L 183 212 C 183 201.50658975321494 191.50658975321494 193 202 193 L 372 193 C 382.49341024678506 193 391 201.5065897532149 391 212 L 391 228 C 391 238.49341024678506 382.49341024678506 247 372 247 Z M 202 207 C 199.23857625084602 207 197 209.23857625084602 197 212 L 197 228 C 197 230.76142374915398 199.23857625084602 233 202 233 L 372 233 C 374.76142374915395 233 377 230.76142374915398 377 228 L 377 212 C 377 209.23857625084602 374.76142374915395 207 372 207 Z" stroke-linecap="round" />
</g>
<g transform="matrix(1 0 0 1 300 351)"  >
<path style="stroke: rgb(74,165,78); stroke-width: 1; stroke-dasharray: none; stroke-linecap: butt; stroke-dashoffset: 0; stroke-linejoin: miter; stroke-miterlimit: 4; fill: rgb(74,165,78); fill-rule: nonzero; opacity: 1;"  transform=" translate(-300, -331)" d="M 333.75 345.5 L 266.25 345.5 C 256.4476143972254 345.48896903112393 248.50551005198963 337.542390260905 248.5 327.74 L 248.5 323.5 C 248.5 319.6340067511845 251.63400675118444 316.5 255.5 316.5 C 259.3659932488155 316.5 262.5 319.6340067511844 262.5 323.5 L 262.5 327.74 C 262.4973432083282 328.73629333218634 262.8912581794991 329.69269153805794 263.5948077649324 330.39811725571906 C 264.2983573503656 331.1035429733801 265.25370312542475 331.5000035423952 266.25 331.5 L 333.75 331.5 C 334.74629687457525 331.5000035423952 335.7016426496344 331.1035429733801 336.4051922350676 330.39811725571906 C 337.1087418205009 329.69269153805794 337.5026567916718 328.73629333218634 337.5 327.74 L 337.5 323.5 C 337.5 319.6340067511845 340.6340067511845 316.5 344.5 316.5 C 348.3659932488155 316.5 351.5 319.6340067511844 351.5 323.5 L 351.5 327.74 C 351.49448994801037 337.542390260905 343.5523856027746 345.48896903112393 333.75 345.5 Z" stroke-linecap="round" />
</g>
</svg>